<svg width="24" height="24" viewBox="0 0 24 24" fill="none" xmlns="http://www.w3.org/2000/svg">
<path fill-rule="evenodd" clip-rule="evenodd" d="M11.9395 2.5C12.7679 2.5 13.4395 3.17157 13.4395 4V19.84C13.4395 20.6684 12.7679 21.34 11.9395 21.34C11.111 21.34 10.4395 20.6684 10.4395 19.84V4C10.4395 3.17157 11.111 2.5 11.9395 2.5ZM19.8809 8.44006C20.7093 8.44006 21.3809 9.11164 21.3809 9.94006V19.8401C21.3809 20.6685 20.7093 21.3401 19.8809 21.3401C19.0524 21.3401 18.3809 20.6685 18.3809 19.8401V9.94006C18.3809 9.11164 19.0524 8.44006 19.8809 8.44006ZM5.5 13.9C5.5 13.0716 4.82843 12.4 4 12.4C3.17157 12.4 2.5 13.0716 2.5 13.9V19.84C2.5 20.6685 3.17157 21.34 4 21.34C4.82843 21.34 5.5 20.6685 5.5 19.84V13.9Z" fill="#C3C3C3"/>
</svg>
