<svg width="24" height="24" viewBox="0 0 24 24" fill="none" xmlns="http://www.w3.org/2000/svg">
<path d="M12 21.5C12.5299 21.4984 13.0377 21.2872 13.4125 20.9125C13.7872 20.5377 13.9984 20.0299 14 19.5H10C10.0016 20.0299 10.2128 20.5377 10.5875 20.9125C10.9623 21.2872 11.4701 21.4984 12 21.5ZM18 15.5V10.5C18 7.4 16.4 4.9 13.5 4.2V3.5C13.5 3.10218 13.342 2.72064 13.0607 2.43934C12.7794 2.15804 12.3978 2 12 2C11.6022 2 11.2206 2.15804 10.9393 2.43934C10.658 2.72064 10.5 3.10218 10.5 3.5V4.2C7.6 4.9 6 7.4 6 10.5V15.5L4 17.5V18.5H20V17.5L18 15.5Z" fill="white"/>
</svg>
