<svg width="24" height="24" viewBox="0 0 24 24" fill="none" xmlns="http://www.w3.org/2000/svg">
<path fill-rule="evenodd" clip-rule="evenodd" d="M7.59961 6.59442H4.3C3.34409 6.59442 2.48197 6.96132 1.87882 7.54587C1.3729 8.06863 1.04538 8.76928 1 9.55437V9.55442V18.4344C1.04912 19.2793 1.42884 20.0301 2.00756 20.5647C2.60138 21.0787 3.40955 21.3942 4.29897 21.3944L4.3 21.3944H19.7L19.701 21.3944C20.6556 21.3942 21.5167 21.028 22.1195 20.4446C22.6264 19.9216 22.9546 19.2203 23 18.4344V9.55442V9.55437C22.9528 8.73774 22.6003 8.01247 22.0593 7.48374C21.4598 6.93444 20.6237 6.59442 19.7 6.59442H16.3996V4.9644C16.3542 4.17882 16.0263 3.47778 15.5198 2.95492C14.9168 2.37094 14.0551 2.00443 13.0998 2.00439L13.0996 2.0044H10.8996L10.8994 2.00439C10.0094 2.00444 9.20072 2.32253 8.60667 2.83823C8.02822 3.37153 7.64872 4.11973 7.59961 4.9644V6.59442ZM14.3996 5.92439V4.96439C14.3996 4.44439 13.7996 4.00439 13.0996 4.00439H10.8996C10.1896 4.00439 9.59961 4.44439 9.59961 4.96439V5.92439H14.3996ZM4.3 8.59442C3.6 8.59442 3 9.03442 3 9.55442V18.4344C3 18.9544 3.6 19.3944 4.3 19.3944H4.94922V8.59442H4.3ZM6.94922 8.59442V19.3944H17.0508V8.59442H6.94922ZM19.7 19.3944H19.0508V8.59442H19.7C20.4 8.59442 21 9.03442 21 9.55442V18.4344C21 18.9544 20.4 19.3944 19.7 19.3944Z" fill="#C3C3C3"/>
</svg>
