<svg width="24" height="24" viewBox="0 0 24 24" fill="none" xmlns="http://www.w3.org/2000/svg">
<path fill-rule="evenodd" clip-rule="evenodd" d="M12.4956 2.15899C12.1661 1.947 11.7431 1.947 11.4136 2.15899L1.4336 8.57899C1.14752 8.76301 0.974609 9.07984 0.974609 9.42V19.51C0.974609 19.5459 0.976543 19.5818 0.980402 19.6175C1.15632 21.2448 2.58396 22.4614 4.23489 22.34H19.6743C21.3253 22.4614 22.7529 21.2448 22.9288 19.6175C22.9327 19.5818 22.9346 19.5459 22.9346 19.51V9.42C22.9346 9.07984 22.7617 8.76301 22.4756 8.57899L12.4956 2.15899ZM2.97461 19.4474V9.96575L11.9546 4.18904L20.9346 9.96575V19.4474C20.8516 20.0007 20.3572 20.3934 19.8035 20.344C19.774 20.3413 19.7443 20.34 19.7146 20.34H15.4746V12.1699C15.4746 11.6176 15.0269 11.1699 14.4746 11.1699H8.97461C8.42232 11.1699 7.97461 11.6176 7.97461 12.1699V20.34H4.19461C4.16492 20.34 4.13525 20.3413 4.10568 20.344C3.55199 20.3934 3.05767 20.0007 2.97461 19.4474ZM9.97461 20.34H13.4746V13.1699H9.97461V20.34Z" fill="#C3C3C3"/>
</svg>
