<svg width="24" height="24" viewBox="0 0 24 24" fill="none" xmlns="http://www.w3.org/2000/svg">
<path fill-rule="evenodd" clip-rule="evenodd" d="M7.59961 6.59393H4.3C3.34409 6.59393 2.48197 6.96083 1.87882 7.54539C1.3729 8.06814 1.04538 8.76879 1 9.55388V9.55393V18.4339C1.04912 19.2788 1.42884 20.0296 2.00756 20.5642C2.60138 21.0782 3.40955 21.3937 4.29897 21.3939L4.3 21.3939H19.7L19.701 21.3939C20.6556 21.3937 21.5167 21.0275 22.1195 20.4441C22.6264 19.9212 22.9546 19.2198 23 18.4339V9.55393V9.55388C22.9528 8.73726 22.6003 8.01199 22.0593 7.48325C21.4598 6.93395 20.6237 6.59393 19.7 6.59393H16.3996V4.96391C16.3542 4.17833 16.0263 3.4773 15.5198 2.95443C14.9168 2.37045 14.0551 2.00395 13.0998 2.00391L13.0996 2.00391H10.8996L10.8994 2.00391C10.0094 2.00395 9.20072 2.32204 8.60667 2.83774C8.02822 3.37104 7.64872 4.11925 7.59961 4.96391V6.59393ZM14.3996 5.92391V4.96391C14.3996 4.44391 13.7996 4.00391 13.0996 4.00391H10.8996C10.1896 4.00391 9.59961 4.44391 9.59961 4.96391V5.92391H14.3996ZM4.3 8.59393C3.6 8.59393 3 9.03393 3 9.55393V18.4339C3 18.9539 3.6 19.3939 4.3 19.3939H4.94922V8.59393H4.3ZM6.94922 8.59393V19.3939H17.0508V8.59393H6.94922ZM19.7 19.3939H19.0508V8.59393H19.7C20.4 8.59393 21 9.03393 21 9.55393V18.4339C21 18.9539 20.4 19.3939 19.7 19.3939Z" fill="#C3C3C3"/>
</svg>
