<svg width="24" height="24" viewBox="0 0 24 24" fill="none" xmlns="http://www.w3.org/2000/svg">
<path fill-rule="evenodd" clip-rule="evenodd" d="M19.6925 3.09332C19.8076 3.03193 19.9293 3.00083 20.0512 3.00002C20.2318 3.00119 20.4065 3.0646 20.5492 3.17371C20.809 3.35993 20.9507 3.68467 20.8851 4.02003L18.3651 19.6C18.3551 19.67 18.3351 19.73 18.3051 19.8C18.2265 19.9878 18.0887 20.1318 17.9226 20.2193C17.7167 20.3328 17.465 20.3567 17.2255 20.2583C17.2187 20.2556 17.2119 20.2529 17.2051 20.25L12.8558 18.3703L10.6361 21.16C10.3549 21.5157 9.90594 21.5554 9.57423 21.3641C9.30217 21.213 9.12361 20.9195 9.14509 20.59V17.69L13.3951 12.77C13.3951 12.77 13.9751 12.02 13.3951 11.56C13.2469 11.4425 13.0908 11.402 12.9406 11.4069C12.5034 11.4216 12.1161 11.82 12.1161 11.82L7.22607 15.93L7.22545 15.9297L7.22509 15.93L3.50509 14.32C3.34509 14.24 3.20509 14.12 3.11509 13.96C2.87509 13.54 3.01509 13 3.43509 12.76L19.6351 3.11003V3.12003C19.654 3.11056 19.6732 3.10165 19.6925 3.09332ZM22.2061 2.01C21.6661 1.37 20.8761 1 20.0461 1V1.01C19.5361 1.01 19.0461 1.15 18.6061 1.41L2.41606 11.05C1.47606 11.61 0.936065 12.63 1.00606 13.71C1.06606 14.79 1.72606 15.73 2.71606 16.16L7.14606 18.08V20.59C7.14606 21.39 7.45607 22.14 8.01607 22.68C8.54606 23.2 9.24607 23.48 9.98606 23.48C10.8461 23.48 11.6461 23.09 12.1861 22.41L13.4561 20.82L16.4061 22.09C16.7661 22.24 17.1361 22.32 17.5261 22.32C18.9161 22.32 20.0961 21.31 20.3261 19.92L22.8461 4.34C22.9861 3.5 22.7461 2.65 22.2061 2.01Z" fill="#C3C3C3"/>
</svg>
