<svg width="24" height="24" viewBox="0 0 24 24" fill="none" xmlns="http://www.w3.org/2000/svg">
<path fill-rule="evenodd" clip-rule="evenodd" d="M12.3101 4C14.7502 4.00012 20.74 8.02 20.74 8.02C20.74 8.02 15.19 12.26 12.31 12.26C9.43 12.26 3 8.07 3 8.07C3 8.07 9.87 4 12.31 4C12.31 4 12.3101 4 12.3101 4ZM1.98021 6.35C1.84021 6.44 1.71021 6.54 1.59021 6.66C1.23021 7.02 1.01021 7.51 1.00021 8.03C0.990215 8.72 1.33021 9.37 1.91021 9.74C1.91911 9.74508 1.95337 9.76664 2.01054 9.80262C2.40321 10.0498 3.87694 10.9773 5.64021 11.92C8.59021 13.49 10.7702 14.25 12.3202 14.25C13.9002 14.25 15.9802 13.46 18.6502 11.84C20.4702 10.74 21.9002 9.65 21.9602 9.6C22.4702 9.21 22.7602 8.6 22.7402 7.95C22.7202 7.3 22.3902 6.71 21.8502 6.35C21.7902 6.31 20.2602 5.29 18.4102 4.26C14.7702 2.23 13.1902 2 12.3102 2C11.4502 2 9.85021 2.23 5.84021 4.25C3.91664 5.22112 2.28081 6.17481 2.01558 6.32944C1.99677 6.3404 1.98485 6.34735 1.98021 6.35Z" fill="#C3C3C3"/>
<path d="M2 12.96C2 12.96 9.62 17.58 12.24 17.58C14.86 17.58 22.05 12.96 22.05 12.96" stroke="#C3C3C3" stroke-width="2" stroke-linecap="round" stroke-linejoin="round"/>
<path d="M2 17.45C2 17.45 9.62 21.59 12.24 21.59C14.86 21.59 22.05 17.45 22.05 17.45" stroke="#C3C3C3" stroke-width="2" stroke-linecap="round" stroke-linejoin="round"/>
</svg>
