<svg width="32" height="32" viewBox="0 0 32 32" fill="none" xmlns="http://www.w3.org/2000/svg">
<path fill-rule="evenodd" clip-rule="evenodd" d="M6 9C7.65685 9 9 7.65685 9 6C9 4.34315 7.65685 3 6 3C4.34315 3 3 4.34315 3 6C3 7.65685 4.34315 9 6 9ZM16 9C17.6569 9 19 7.65685 19 6C19 4.34315 17.6569 3 16 3C14.3431 3 13 4.34315 13 6C13 7.65685 14.3431 9 16 9ZM29 6C29 7.65685 27.6569 9 26 9C24.3431 9 23 7.65685 23 6C23 4.34315 24.3431 3 26 3C27.6569 3 29 4.34315 29 6ZM6 19C7.65685 19 9 17.6569 9 16C9 14.3431 7.65685 13 6 13C4.34315 13 3 14.3431 3 16C3 17.6569 4.34315 19 6 19ZM19 16C19 17.6569 17.6569 19 16 19C14.3431 19 13 17.6569 13 16C13 14.3431 14.3431 13 16 13C17.6569 13 19 14.3431 19 16ZM26 19C27.6569 19 29 17.6569 29 16C29 14.3431 27.6569 13 26 13C24.3431 13 23 14.3431 23 16C23 17.6569 24.3431 19 26 19ZM9 26C9 27.6569 7.65685 29 6 29C4.34315 29 3 27.6569 3 26C3 24.3431 4.34315 23 6 23C7.65685 23 9 24.3431 9 26ZM16 29C17.6569 29 19 27.6569 19 26C19 24.3431 17.6569 23 16 23C14.3431 23 13 24.3431 13 26C13 27.6569 14.3431 29 16 29ZM29 26C29 27.6569 27.6569 29 26 29C24.3431 29 23 27.6569 23 26C23 24.3431 24.3431 23 26 23C27.6569 23 29 24.3431 29 26Z" fill="white"/>
</svg>
